<mxfile host="app.diagrams.net" modified="2022-11-14T11:41:22.905Z" agent="5.0 (Macintosh; Intel Mac OS X 10_15_7) AppleWebKit/537.36 (KHTML, like Gecko) Chrome/107.0.0.0 Safari/537.36" etag="F1ya7l38bSQDrDmcNjsZ" version="20.5.3" type="github">
  <diagram id="WLtaKfaRe4ueHyxUEs10" name="第 1 页">
    <mxGraphModel dx="944" dy="532" grid="1" gridSize="10" guides="1" tooltips="1" connect="1" arrows="1" fold="1" page="1" pageScale="1" pageWidth="827" pageHeight="1169" math="0" shadow="0">
      <root>
        <mxCell id="0" />
        <mxCell id="1" parent="0" />
        <mxCell id="QnQIE5Mix4pdffgTbISd-18" value="" style="rounded=0;whiteSpace=wrap;html=1;dashed=1;" vertex="1" parent="1">
          <mxGeometry x="190" y="230" width="570" height="310" as="geometry" />
        </mxCell>
        <mxCell id="QnQIE5Mix4pdffgTbISd-16" value="" style="rounded=0;whiteSpace=wrap;html=1;dashed=1;" vertex="1" parent="1">
          <mxGeometry x="190" y="572.5" width="571" height="185" as="geometry" />
        </mxCell>
        <mxCell id="QnQIE5Mix4pdffgTbISd-1" style="edgeStyle=orthogonalEdgeStyle;rounded=0;orthogonalLoop=1;jettySize=auto;html=1;" edge="1" parent="1" source="QnQIE5Mix4pdffgTbISd-2" target="QnQIE5Mix4pdffgTbISd-9">
          <mxGeometry relative="1" as="geometry" />
        </mxCell>
        <mxCell id="QnQIE5Mix4pdffgTbISd-2" value="样本元素配置信息" style="shape=note2;boundedLbl=1;whiteSpace=wrap;html=1;size=25;verticalAlign=top;align=center;" vertex="1" parent="1">
          <mxGeometry x="239" y="140" width="191" height="60" as="geometry" />
        </mxCell>
        <mxCell id="QnQIE5Mix4pdffgTbISd-23" style="edgeStyle=orthogonalEdgeStyle;rounded=0;orthogonalLoop=1;jettySize=auto;html=1;entryX=1;entryY=0.5;entryDx=0;entryDy=0;" edge="1" parent="1" source="QnQIE5Mix4pdffgTbISd-4" target="QnQIE5Mix4pdffgTbISd-13">
          <mxGeometry relative="1" as="geometry" />
        </mxCell>
        <mxCell id="QnQIE5Mix4pdffgTbISd-4" value="调用插件获取表格元素接口" style="fontStyle=0;fontSize=12;" vertex="1" parent="1">
          <mxGeometry x="500" y="380" width="191" height="50" as="geometry" />
        </mxCell>
        <mxCell id="QnQIE5Mix4pdffgTbISd-5" style="edgeStyle=orthogonalEdgeStyle;rounded=0;orthogonalLoop=1;jettySize=auto;html=1;entryX=0.5;entryY=0;entryDx=0;entryDy=0;" edge="1" parent="1" source="QnQIE5Mix4pdffgTbISd-9" target="QnQIE5Mix4pdffgTbISd-11">
          <mxGeometry relative="1" as="geometry" />
        </mxCell>
        <mxCell id="QnQIE5Mix4pdffgTbISd-6" value="是" style="edgeLabel;html=1;align=center;verticalAlign=middle;resizable=0;points=[];" vertex="1" connectable="0" parent="QnQIE5Mix4pdffgTbISd-5">
          <mxGeometry x="0.3365" y="1" relative="1" as="geometry">
            <mxPoint x="-3" y="-9" as="offset" />
          </mxGeometry>
        </mxCell>
        <mxCell id="QnQIE5Mix4pdffgTbISd-15" style="edgeStyle=orthogonalEdgeStyle;rounded=0;orthogonalLoop=1;jettySize=auto;html=1;entryX=0.5;entryY=0;entryDx=0;entryDy=0;" edge="1" parent="1" source="QnQIE5Mix4pdffgTbISd-9" target="QnQIE5Mix4pdffgTbISd-4">
          <mxGeometry relative="1" as="geometry" />
        </mxCell>
        <mxCell id="QnQIE5Mix4pdffgTbISd-25" value="否" style="edgeLabel;html=1;align=center;verticalAlign=middle;resizable=0;points=[];" vertex="1" connectable="0" parent="QnQIE5Mix4pdffgTbISd-15">
          <mxGeometry x="-0.0132" relative="1" as="geometry">
            <mxPoint as="offset" />
          </mxGeometry>
        </mxCell>
        <mxCell id="QnQIE5Mix4pdffgTbISd-9" value="是否表格元素" style="strokeWidth=2;html=1;shape=mxgraph.flowchart.decision;whiteSpace=wrap;" vertex="1" parent="1">
          <mxGeometry x="249" y="240" width="171" height="100" as="geometry" />
        </mxCell>
        <mxCell id="QnQIE5Mix4pdffgTbISd-24" style="edgeStyle=orthogonalEdgeStyle;rounded=0;orthogonalLoop=1;jettySize=auto;html=1;entryX=0;entryY=0.5;entryDx=0;entryDy=0;" edge="1" parent="1" source="QnQIE5Mix4pdffgTbISd-11" target="QnQIE5Mix4pdffgTbISd-13">
          <mxGeometry relative="1" as="geometry" />
        </mxCell>
        <mxCell id="QnQIE5Mix4pdffgTbISd-11" value="调用插件获取相似元素接口" style="fontStyle=0;fontSize=12;" vertex="1" parent="1">
          <mxGeometry x="239" y="380" width="191" height="50" as="geometry" />
        </mxCell>
        <mxCell id="QnQIE5Mix4pdffgTbISd-22" style="edgeStyle=orthogonalEdgeStyle;rounded=0;orthogonalLoop=1;jettySize=auto;html=1;entryX=0.5;entryY=0;entryDx=0;entryDy=0;" edge="1" parent="1" source="QnQIE5Mix4pdffgTbISd-13" target="QnQIE5Mix4pdffgTbISd-16">
          <mxGeometry relative="1" as="geometry" />
        </mxCell>
        <mxCell id="QnQIE5Mix4pdffgTbISd-13" value="整理数据格式，输出采集结果" style="fontStyle=0;fontSize=12;" vertex="1" parent="1">
          <mxGeometry x="379.5" y="470" width="191" height="50" as="geometry" />
        </mxCell>
        <mxCell id="QnQIE5Mix4pdffgTbISd-14" value="预览界面" style="fontStyle=0;fontSize=12;" vertex="1" parent="1">
          <mxGeometry x="239" y="640" width="101" height="40" as="geometry" />
        </mxCell>
        <mxCell id="QnQIE5Mix4pdffgTbISd-20" value="数据采集执行模块" style="text;html=1;strokeColor=none;fillColor=none;align=center;verticalAlign=middle;whiteSpace=wrap;rounded=0;dashed=1;" vertex="1" parent="1">
          <mxGeometry x="640" y="250" width="110" height="30" as="geometry" />
        </mxCell>
        <mxCell id="QnQIE5Mix4pdffgTbISd-21" value="数据展示、存储方式" style="text;html=1;strokeColor=none;fillColor=none;align=center;verticalAlign=middle;whiteSpace=wrap;rounded=0;dashed=1;" vertex="1" parent="1">
          <mxGeometry x="640" y="600" width="110" height="30" as="geometry" />
        </mxCell>
        <mxCell id="QnQIE5Mix4pdffgTbISd-26" value="保存为Excel" style="fontStyle=0;fontSize=12;" vertex="1" parent="1">
          <mxGeometry x="370" y="640" width="101" height="40" as="geometry" />
        </mxCell>
        <mxCell id="QnQIE5Mix4pdffgTbISd-27" value="保存为文档" style="fontStyle=0;fontSize=12;" vertex="1" parent="1">
          <mxGeometry x="500" y="640" width="101" height="40" as="geometry" />
        </mxCell>
        <mxCell id="QnQIE5Mix4pdffgTbISd-28" value="其他..." style="fontStyle=0;fontSize=12;" vertex="1" parent="1">
          <mxGeometry x="630" y="640" width="101" height="40" as="geometry" />
        </mxCell>
      </root>
    </mxGraphModel>
  </diagram>
</mxfile>
